<svg xmlns="http://www.w3.org/2000/svg" width="980" height="520" viewBox="0 0 980 520">
  <rect width="980" height="520" fill="#ffffff"/>
  <rect x="40" y="40" width="900" height="440" rx="16" fill="#f7f9fc" stroke="#c7d2e0" stroke-width="2"/>
  <text x="70" y="90" font-family="Segoe UI, Arial, sans-serif" font-size="30" fill="#1f2937">PCM1808 Reference (Signal and Power Pins)</text>

  <rect x="130" y="140" width="330" height="280" rx="12" fill="#ffffff" stroke="#5b6b82" stroke-width="2"/>
  <text x="170" y="178" font-family="Segoe UI, Arial, sans-serif" font-size="24" fill="#111827">PCM1808 Module</text>

  <text x="165" y="220" font-family="Consolas, monospace" font-size="20" fill="#1f2937">MCLK</text>
  <text x="165" y="255" font-family="Consolas, monospace" font-size="20" fill="#1f2937">BCK</text>
  <text x="165" y="290" font-family="Consolas, monospace" font-size="20" fill="#1f2937">LRCK / WS</text>
  <text x="165" y="325" font-family="Consolas, monospace" font-size="20" fill="#1f2937">DOUT</text>
  <text x="165" y="360" font-family="Consolas, monospace" font-size="20" fill="#1f2937">VCC</text>
  <text x="165" y="395" font-family="Consolas, monospace" font-size="20" fill="#1f2937">GND</text>

  <rect x="560" y="140" width="300" height="280" rx="12" fill="#ffffff" stroke="#5b6b82" stroke-width="2"/>
  <text x="610" y="178" font-family="Segoe UI, Arial, sans-serif" font-size="24" fill="#111827">ESP32</text>

  <text x="595" y="220" font-family="Consolas, monospace" font-size="20" fill="#1f2937">GPIO0</text>
  <text x="595" y="255" font-family="Consolas, monospace" font-size="20" fill="#1f2937">GPIO27</text>
  <text x="595" y="290" font-family="Consolas, monospace" font-size="20" fill="#1f2937">GPIO25</text>
  <text x="595" y="325" font-family="Consolas, monospace" font-size="20" fill="#1f2937">GPIO26</text>
  <text x="595" y="360" font-family="Consolas, monospace" font-size="20" fill="#1f2937">3V3 / 5V*</text>
  <text x="595" y="395" font-family="Consolas, monospace" font-size="20" fill="#1f2937">GND</text>

  <line x1="300" y1="214" x2="560" y2="214" stroke="#2563eb" stroke-width="3"/>
  <line x1="300" y1="249" x2="560" y2="249" stroke="#2563eb" stroke-width="3"/>
  <line x1="300" y1="284" x2="560" y2="284" stroke="#2563eb" stroke-width="3"/>
  <line x1="300" y1="319" x2="560" y2="319" stroke="#2563eb" stroke-width="3"/>
  <line x1="300" y1="354" x2="560" y2="354" stroke="#059669" stroke-width="3"/>
  <line x1="300" y1="389" x2="560" y2="389" stroke="#111827" stroke-width="3"/>

  <text x="70" y="460" font-family="Segoe UI, Arial, sans-serif" font-size="16" fill="#4b5563">* Power rail depends on your PCM1808 breakout design.</text>
</svg>
